<svg  xmlns="http://www.w3.org/2000/svg" viewBox="0 0 46.893 60" xml:space="preserve"><path d="M25.948 42.076a2.502 2.502 0 0 1-5.003 0 2.502 2.502 0 0 1 5.003 0m-2.501-29.854C23.447 6.022 18.425 1 12.222 1 6.025 1 1 6.023 1 12.222c0 3.248 1.402 6.146 3.606 8.2l-.028.007 18.869 18.869 18.875-18.87c-.008-.007-.013-.007-.021-.013 2.201-2.05 3.592-4.945 3.592-8.193C45.893 6.022 40.87 1 34.668 1c-6.194 0-11.221 5.023-11.221 11.222" fill="#F16061"/><path fill="#393939" d="M23.447 45.577a3.505 3.505 0 0 1-3.502-3.5c0-1.93 1.571-3.5 3.502-3.5a3.504 3.504 0 0 1 3.501 3.5c0 1.93-1.57 3.5-3.501 3.5m0-5c-.828 0-1.502.673-1.502 1.5a1.503 1.503 0 0 0 3.003 0c0-.827-.673-1.5-1.501-1.5"/><path fill="#393939" d="M23.244 60a1 1 0 0 1-1-1c0-1.184.66-2.14 1.299-3.064.64-.926 1.3-1.884 1.41-3.156.088-1.038-.63-2.354-1.325-3.628-.955-1.752-1.943-3.564-1.018-5.152a1.001 1.001 0 0 1 1.728 1.008c-.357.613.389 1.98 1.047 3.186.797 1.462 1.7 3.12 1.56 4.757-.154 1.8-1.043 3.086-1.756 4.121-.507.734-.945 1.368-.945 1.928a1 1 0 0 1-1 1m16.472-44.458a1 1 0 0 1-1.001-1c0-2.793-2.569-6.204-5.566-6.204a1 1 0 1 1 0-2c4.26 0 7.566 4.41 7.566 8.203a1 1 0 0 1-1 1"/><path fill="#393939" d="M23.447 40.298a1 1 0 0 1-.707-.293L3.87 21.135a1 1 0 0 1-.123-.15C1.33 18.647 0 15.545 0 12.223 0 5.482 5.483 0 12.222 0c5.022 0 9.346 3.043 11.225 7.38C25.327 3.043 29.647 0 34.668 0c6.74 0 12.225 5.482 12.225 12.222 0 3.328-1.326 6.43-3.738 8.76q-.056.084-.126.154L24.154 40.005a1 1 0 0 1-.707.293M5.45 19.888l17.996 17.996 18.007-18.001q.068-.11.165-.2c2.111-1.966 3.274-4.616 3.274-7.461C44.893 6.585 40.306 2 34.668 2c-5.636 0-10.22 4.585-10.22 10.222a1 1 0 0 1-2.001 0C22.447 6.585 17.86 2 12.222 2 6.586 2 2 6.585 2 12.222c0 2.84 1.167 5.492 3.287 7.468q.095.089.164.197"/></svg>